<?xml version="1.0" encoding="utf-8"?>
<!-- Generator: Adobe Illustrator 27.0.1, SVG Export Plug-In . SVG Version: 6.00 Build 0)  -->
<svg version="1.1" id="Calque_1" xmlns="http://www.w3.org/2000/svg" xmlns:xlink="http://www.w3.org/1999/xlink" x="0px" y="0px"
	 viewBox="0 0 1759.8 834.1" style="enable-background:new 0 0 1759.8 834.1;" xml:space="preserve">
<style type="text/css">
	.st0{fill:#239981;}
	.st1{fill:#212121;}
</style>
<g>
	<path class="st0" d="M334.4,634.7c139.3,0,266.7-109.5,266.7-278.6c0-78.2-73-94.6-155.7-94.6c-78.2,0-119.2,8.2-161.6,22.3
		c-17.9,6-26.1,24.6-26.1,41.7c0,38.7,13.4,56.6,38,56.6c54.4,0,104.3-23.1,163.9-23.1c32.8,0,55.1,3,55.1,35.8
		c0,93.1-107.3,137.1-192.9,137.1c-127.4,0-184.7-90.1-184.7-204.1c0-129.6,112.5-232.4,193.7-232.4c110.2,0,142.3,38.7,174.3,38.7
		c18.6,0,29-14.9,29-46.9C534.1,23.1,453.6,0,376.2,0C245.1,0,37.3,97.6,37.3,354.6c0,78.3,29.6,148.6,81.9,199.2L0,753.6
		c0,0,213.8,95.2,286.7,55s-103.5-140-143.3-128.5c-25.7,7.4,6.4-45.6,32.5-84.3C220,620.6,273.6,634.7,334.4,634.7L334.4,634.7z"/>
	<path class="st0" d="M491,695.2c-17.4,19.7-19-39.9-17.8-86.2l-69.3,26.6l5.5,198.5c0,0,231.5-34.2,271.5-107.2
		S518.5,664.1,491,695.2L491,695.2z"/>
</g>
<g>
	<g>
		<g>
			<path class="st1" d="M690.5,245.5c16.9,0,20.7-0.6,40.8-0.6c15.4,0,29.2-1.9,39.5-1.9c6.2,0,10.2,5.3,10.2,12.2
				c0,4.9-3,11.7-6.6,12.8c-16.7,4.7-34.8,6.2-55.7,6.2c-14.5,0-28.2-0.8-39.5-2.3c-9.6-1.3-15.2-8.3-15.2-15.8
				c-0.2-129.8-0.8-132.1-0.8-134.5c0-11.5,3-20.5,13.2-20.5c6.4,0,14.1,4.9,14.3,19.6c-0.6,15.4-0.6,34.2-0.8,49.3
				C690,197,690.5,240.2,690.5,245.5L690.5,245.5z"/>
			<path class="st1" d="M960.2,228.6c4.3,0,18.6,19.4,49.7,19.4c19,0,40.6-10.9,41.6-27.8c-0.2-30.7-103.7-4.1-103.7-65.5
				c0-24.1,25.4-55.5,69.2-55.5c35,0,62.8,16.4,62.8,33.7c0,9.4-3.2,15.6-8.8,15.6c-10.7,0-11.3-23-58.5-23
				c-9.4,0-35.2,4.9-35.2,26.9c0,35.9,103.7,4.7,103.7,68.3c0,34.2-39.1,53.1-71.3,53.1c-28.8,0-58.3-7.9-58.3-31.2
				C952.1,234,954.7,228.6,960.2,228.6L960.2,228.6z"/>
		</g>
		<g>
			<path class="st1" d="M795.8,511.9c0,88-46.2,92.6-76.6,92.6c-49,0-60.9-34.8-60.9-63c0-36.4,2.3-71.5,2.3-115.6
				c0-17,7.2-29.2,18.1-29.2c7.7,0,12.1,8.8,12.1,16.5c0,36.6-3.9,73.8-3.9,113.5c0,19.3,3.1,39,40,39s40-24,40-71.7
				c0-26.6-3.6-42.8-3.6-71.7c0-12.9,4.6-24,18.8-27.3c6.7,0,13.9,3.1,13.9,13.4L795.8,511.9L795.8,511.9z"/>
			<path class="st1" d="M849.4,598.1c-11.6,0-18.3-10.1-18.3-19.1c-0.3-156.9-1-159.7-1-162.6c0-13.9,3.6-24.8,16-24.8
				c7.7,0,17,5.9,17.3,23.7c-0.8,18.6-1,41.3-1,59.6c0,32.8,0.8,84.9,0.8,91.3C863.1,580.3,863.1,598.1,849.4,598.1L849.4,598.1z"/>
			<path class="st1" d="M894.1,574.6c2.1-29.7,2.8-66.1,2.8-93.9c0-20.9-0.5-39.5-1.3-43.9c-6.2-2.8-8.5-8.5-8.5-16.2
				c0-13.2,5.9-19.1,16.8-22.5c31-9.3,59.6-11.3,83.9-11.3c27.3,0,59.1,4.9,59.1,29.7c0,20.4-22.4,51.1-40.8,61.7
				c27.3,2.1,49.8,6.2,49.8,38.4c0,59.3-74.1,85.7-124.4,85.7c-20.4,0-37.4-5.2-37.4-25.8L894.1,574.6L894.1,574.6z M923.8,542.4
				c0,6.7,0.8,13.2,2.1,20.9c7.5,2.1,13.7,3.1,21.9,3.1c23.7,0,74.8-15,74.8-44.1c0-13.2-13.9-21.9-31.7-21.9
				c-23.5,0-52.1,7.2-65.8,10.8C924.3,518.4,923.7,536.5,923.8,542.4L923.8,542.4z M924,478.1c33.8-0.3,82.6-21.4,82.6-44.6
				c0-10.3-8.8-16-22.4-16c-18.6,0-43.1,5.2-58.6,11.6C923.8,447.7,924.5,460.1,924,478.1z"/>
			<path class="st1" d="M1181.3,387c55.5,0,97,43.9,97,95.7c0,62.7-43.6,118.4-114.3,118.4c-59.6,0-90.6-43.6-90.6-95.5
				C1073.4,425.2,1132,387,1181.3,387L1181.3,387z M1167.3,565.9c40.2,0,82.3-27.9,82.3-75.6c0-39.2-34.3-71.7-71.7-71.7
				c-49.5,0-78.4,34.6-78.4,82.1C1099.5,537.5,1129.9,565.9,1167.3,565.9L1167.3,565.9z"/>
			<path class="st1" d="M1334.5,566.4c20.4,0,12.1-0.8,36.4-0.8c18.6,0,35.3-2.3,47.7-2.3c7.5,0,12.4,6.4,12.4,14.7
				c0,5.9-3.6,14.2-8,15.5c-20.1,5.7-31.7,7-57,7c-17.6,0-31.5-0.5-45.2-2.3c-11.6-1.6-18.3-10.1-18.3-19.1
				c-0.3-156.9-1-159.7-1-162.6c0-13.9,3.6-24.8,16-24.8c7.7,0,17,5.9,17.3,23.7c-0.8,18.6-0.8,41.3-1,59.6
				C1334,507.8,1334.5,559.9,1334.5,566.4L1334.5,566.4z"/>
			<path class="st1" d="M1615.3,546c5.2,0,22.4,23.5,60.1,23.5c23,0,49-13.2,50.3-33.5c-0.3-37.2-125.4-4.9-125.4-79.2
				c0-29.2,30.7-67.1,83.6-67.1c42.3,0,75.9,19.9,75.9,40.8c0,11.3-3.9,18.8-10.6,18.8c-12.9,0-13.7-27.9-70.7-27.9
				c-11.3,0-42.6,5.9-42.6,32.5c0,43.3,125.4,5.7,125.4,82.6c0,41.3-47.2,64.2-86.2,64.2c-34.8,0-70.4-9.6-70.4-37.7
				C1605.5,552.4,1608.6,546,1615.3,546L1615.3,546z"/>
		</g>
	</g>
	<path class="st1" d="M927.6,117.8c-1.5,2.5-4.1,3.8-7.3,4c-7.3,1-14.9,1.5-23,1.5s-16.2,0.2-23.5,0.8c-6.3,0.5-12.1,0.8-17.2,1
		c-5.3,0.5-10.9,0.8-16.9,1.3c0,15.9-0.5,31.6-1.5,46.8l10.1-0.8l11.4-0.5l11.4-1c3.5-0.2,6.6-0.5,9.1-1c3.3-0.2,6.3-0.5,9.3-1
		c2.8,0,5.6-0.2,8.1-0.2c3.3,0,6.3,1,8.8,2.8c2.3,2,3.5,4.8,3.5,8.1c0,3.8-1.3,6.6-3.8,8.1c-2.5,2-5.6,3-8.8,3.3
		c-4.8,0.5-9.9,1-15.2,1.3c-5.3,0.5-10.6,1-15.7,1.3c-5.6,0.5-10.6,0.8-15.7,1.3c-5.3,0.5-10.1,0.8-14.2,1c-0.5,6.1-1.3,12.4-2,19.5
		c-0.8,7.1-1,13.7-1,19.5c0,3.5,0.8,6.1,2.8,8.1c1.8,2,4,3.5,7.1,4.5c2.8,1.3,6.1,2,9.6,2.3c3.5,0.5,6.8,0.5,10.4,0.5
		c4.3,0,8.6-0.2,12.9-0.8c4-0.5,8.3-1,12.6-2l5.3-1c1.8-0.5,3.5-0.8,5.6-1.3c1.8-0.2,3.5-0.5,5.6-0.8c1.5,0,3.5-0.2,5.8-0.2
		c1.5,0,3.3,0.5,5.3,1.3c2,0.8,4,1.8,6.1,3c1.8,1.3,3.3,2.8,4.6,4.3c1.3,1.8,2,3.5,2,5.1c0,2-0.8,3.5-1.8,4.8
		c-1.3,1.5-2.8,2.5-4.3,3.3c-1.8,1-3.5,1.5-5.3,2c-2,0.5-3.5,1-5.1,1c-7.8,1-15.4,1.8-22.8,2.3c-7.6,0.5-15.2,0.8-23,0.8
		c-4.5,0-9.3-0.2-14.9-0.8c-5.6-0.5-11.1-1.8-16.4-3.5c-5.6-1.5-10.4-3.5-14.7-6.6c-4.5-2.5-7.6-6.3-9.6-10.9
		c-1.5-2.8-2.3-5.6-2.5-8.6c-0.5-2.8-0.5-5.6-0.5-8.6c0-2.5,0-5.3,0.5-8.8l1-10.1c0.2-3.5,0.5-6.6,1-9.6c0.5-2.8,0.8-5.1,1-6.6h-3.5
		c-3,0-5.6-1-7.6-3s-3-4.5-3-7.8c0-2.8,1-5.1,3.5-6.8c2.5-1.8,4.8-2.8,7.3-3.3h1.3c0.5,0,1,0,1.8-0.2h1.3l0.5-13.2l0.8-12.1
		l0.5-11.9c0-4,0.2-8.3,0.2-13.2c-2.5-0.8-4.8-2.3-6.6-4.3c-2-1.8-3-4-3-6.8c0-1.3,0.2-2.8,1-4.3c0.5-1.5,2-2.5,4-3.5
		c3-1.3,7.6-2.3,13.7-3c5.8-0.5,11.9-0.8,18.5-1.3c7.3-0.2,14.7-0.5,22-0.8l22.5-1l8.3-0.5l8.8-0.5c2.8-0.2,5.3-0.5,7.8-0.8
		c2.5,0,4.5-0.2,6.1-0.2c3.3,0,6.1,1,8.6,3c2.3,2.3,3.5,4.8,3.5,7.8S929.1,115.5,927.6,117.8L927.6,117.8z"/>
	<path class="st1" d="M1585,408.9c-1.9,3.1-5,4.7-9,5c-9,1.2-18.3,1.9-28.2,1.9s-19.8,0.3-28.8,0.9c-7.8,0.6-14.9,0.9-21.1,1.2
		c-6.5,0.6-13.3,0.9-20.8,1.5c0,19.5-0.6,38.8-1.9,57.4l12.4-0.9l13.9-0.6l13.9-1.2c4.3-0.3,8.1-0.6,11.2-1.2
		c4-0.3,7.8-0.6,11.5-1.2c3.4,0,6.8-0.3,9.9-0.3c4,0,7.8,1.2,10.8,3.4c2.8,2.5,4.3,5.9,4.3,9.9c0,4.7-1.6,8.1-4.7,9.9
		c-3.1,2.5-6.8,3.7-10.8,4c-5.9,0.6-12.1,1.2-18.6,1.6c-6.5,0.6-13,1.2-19.2,1.6c-6.8,0.6-13,0.9-19.2,1.6
		c-6.5,0.6-12.4,0.9-17.4,1.2c-0.6,7.4-1.6,15.2-2.5,23.9s-1.2,16.7-1.2,23.9c0,4.3,0.9,7.4,3.4,9.9c2.2,2.5,5,4.3,8.7,5.6
		c3.4,1.6,7.4,2.5,11.8,2.8c4.3,0.6,8.4,0.6,12.7,0.6c5.3,0,10.5-0.3,15.8-0.9c5-0.6,10.2-1.2,15.5-2.5l6.5-1.2
		c2.2-0.6,4.3-0.9,6.8-1.6c2.2-0.3,4.3-0.6,6.8-0.9c1.9,0,4.3-0.3,7.1-0.3c1.9,0,4,0.6,6.5,1.6s5,2.2,7.4,3.7c2.2,1.6,4,3.4,5.6,5.3
		c1.6,2.2,2.5,4.3,2.5,6.2c0,2.5-0.9,4.3-2.2,5.9c-1.6,1.9-3.4,3.1-5.3,4c-2.2,1.2-4.3,1.9-6.5,2.5c-2.5,0.6-4.3,1.2-6.2,1.2
		c-9.6,1.2-18.9,2.2-27.9,2.8c-9.3,0.6-18.6,0.9-28.2,0.9c-5.6,0-11.5-0.3-18.3-0.9s-13.6-2.2-20.2-4.3c-6.8-1.9-12.7-4.3-18-8.1
		c-5.6-3.1-9.3-7.8-11.8-13.3c-1.9-3.4-2.8-6.8-3.1-10.5c-0.6-3.4-0.6-6.8-0.6-10.5c0-3.1,0-6.5,0.6-10.8l1.2-12.4
		c0.3-4.3,0.6-8.1,1.2-11.8c0.6-3.4,0.9-6.2,1.2-8.1h-4.3c-3.7,0-6.8-1.2-9.3-3.7s-3.7-5.6-3.7-9.6c0-3.4,1.2-6.2,4.3-8.4
		s5.9-3.4,9-4h1.6c0.6,0,1.2,0,2.2-0.3h1.6l0.6-16.1l0.9-14.9l0.6-14.6c0-5,0.3-10.2,0.3-16.1c-3.1-0.9-5.9-2.8-8.1-5.3
		c-2.5-2.2-3.7-5-3.7-8.4c0-1.5,0.3-3.4,1.2-5.3c0.6-1.9,2.5-3.1,5-4.3c3.7-1.5,9.3-2.8,16.7-3.7c7.1-0.6,14.6-0.9,22.6-1.5
		c9-0.3,18-0.6,27-0.9l27.6-1.2l10.2-0.6l10.8-0.6c3.4-0.3,6.5-0.6,9.6-0.9c3.1,0,5.6-0.3,7.4-0.3c4,0,7.4,1.2,10.5,3.7
		c2.8,2.8,4.3,5.9,4.3,9.6S1586.8,406.2,1585,408.9L1585,408.9z"/>
</g>
</svg>
