<?xml version="1.0" encoding="UTF-8"?>
<svg id="Calque_2" data-name="Calque 2" xmlns="http://www.w3.org/2000/svg" viewBox="0 0 686.2 834">
  <defs>
    <style>
      .cls-1 {
        fill: #239981;
      }
    </style>
  </defs>
  <g id="Calque_1-2" data-name="Calque 1">
    <g>
      <path class="cls-1" d="M334.5,634.63c139.29,0,266.67-109.5,266.67-278.58,0-78.21-73-94.6-155.68-94.6-78.21,0-119.18,8.19-161.64,22.35-17.88,5.96-26.07,24.58-26.07,41.71,0,38.73,13.41,56.61,37.99,56.61,54.38,0,104.28-23.09,163.87-23.09,32.78,0,55.12,2.98,55.12,35.76,0,93.11-107.26,137.06-192.92,137.06-127.37,0-184.73-90.13-184.73-204.1,0-129.61,112.48-232.4,193.67-232.4,110.24,0,142.27,38.73,174.3,38.73,18.62,0,29.05-14.9,29.05-46.93C534.13,23.09,453.68,0,376.22,0,245.12,0,37.3,97.58,37.3,354.56c0,78.27,29.57,148.62,81.87,199.24L0,753.57s213.79,95.19,286.68,55c72.89-40.2-103.45-139.98-143.33-128.47-25.69,7.42,6.39-45.64,32.47-84.34,44.33,24.72,97.89,38.87,158.67,38.87h.01Z"/>
      <path class="cls-1" d="M491.13,695.14c-17.41,19.69-19.02-39.88-17.85-86.22l-69.31,26.56,5.52,198.52s231.51-34.23,271.5-107.23-162.36-62.73-189.86-31.63h0Z"/>
    </g>
  </g>
</svg>